<mxfile host="app.diagrams.net" modified="2023-05-04T15:07:48.200Z" agent="Mozilla/5.0 (Windows NT 10.0; Win64; x64) AppleWebKit/537.36 (KHTML, like Gecko) Chrome/112.0.0.0 Safari/537.36" etag="hiiL4eC-UEzHKjSQMMWl" version="21.2.6" type="device">
  <diagram name="Page-1" id="t9OyOJXAdJE180gAunB3">
    <mxGraphModel dx="934" dy="448" grid="1" gridSize="10" guides="1" tooltips="1" connect="1" arrows="1" fold="1" page="1" pageScale="1" pageWidth="850" pageHeight="1100" math="0" shadow="0">
      <root>
        <mxCell id="0" />
        <mxCell id="1" parent="0" />
        <mxCell id="t743cUBlZp0HRSBSnR_Z-1" value="Zoo" style="rounded=0;whiteSpace=wrap;html=1;fillColor=#d5e8d4;strokeColor=#82b366;" vertex="1" parent="1">
          <mxGeometry x="110" y="120" width="120" height="60" as="geometry" />
        </mxCell>
        <mxCell id="t743cUBlZp0HRSBSnR_Z-2" value="Especie" style="rounded=0;whiteSpace=wrap;html=1;fillColor=#d5e8d4;strokeColor=#82b366;" vertex="1" parent="1">
          <mxGeometry x="540" y="120" width="120" height="60" as="geometry" />
        </mxCell>
        <mxCell id="t743cUBlZp0HRSBSnR_Z-3" value="Animal" style="rounded=0;whiteSpace=wrap;html=1;fillColor=#d5e8d4;strokeColor=#82b366;" vertex="1" parent="1">
          <mxGeometry x="340" y="280" width="120" height="60" as="geometry" />
        </mxCell>
        <mxCell id="t743cUBlZp0HRSBSnR_Z-4" value="&lt;u&gt;id_zoo&lt;/u&gt;" style="ellipse;whiteSpace=wrap;html=1;" vertex="1" parent="1">
          <mxGeometry x="230" y="40" width="70" height="40" as="geometry" />
        </mxCell>
        <mxCell id="t743cUBlZp0HRSBSnR_Z-5" value="nombre" style="ellipse;whiteSpace=wrap;html=1;" vertex="1" parent="1">
          <mxGeometry x="150" y="10" width="70" height="50" as="geometry" />
        </mxCell>
        <mxCell id="t743cUBlZp0HRSBSnR_Z-6" value="ciudad" style="ellipse;whiteSpace=wrap;html=1;" vertex="1" parent="1">
          <mxGeometry x="60" y="10" width="80" height="50" as="geometry" />
        </mxCell>
        <mxCell id="t743cUBlZp0HRSBSnR_Z-7" value="País" style="ellipse;whiteSpace=wrap;html=1;" vertex="1" parent="1">
          <mxGeometry y="60" width="80" height="50" as="geometry" />
        </mxCell>
        <mxCell id="t743cUBlZp0HRSBSnR_Z-8" value="Tamaño" style="ellipse;whiteSpace=wrap;html=1;" vertex="1" parent="1">
          <mxGeometry y="130" width="80" height="50" as="geometry" />
        </mxCell>
        <mxCell id="t743cUBlZp0HRSBSnR_Z-9" value="Presupuesto" style="ellipse;whiteSpace=wrap;html=1;" vertex="1" parent="1">
          <mxGeometry x="10" y="210" width="80" height="50" as="geometry" />
        </mxCell>
        <mxCell id="t743cUBlZp0HRSBSnR_Z-10" value="&lt;u&gt;id_especie&lt;/u&gt;" style="ellipse;whiteSpace=wrap;html=1;" vertex="1" parent="1">
          <mxGeometry x="690" y="30" width="70" height="40" as="geometry" />
        </mxCell>
        <mxCell id="t743cUBlZp0HRSBSnR_Z-11" value="nombre" style="ellipse;whiteSpace=wrap;html=1;" vertex="1" parent="1">
          <mxGeometry x="600" y="20" width="70" height="50" as="geometry" />
        </mxCell>
        <mxCell id="t743cUBlZp0HRSBSnR_Z-12" value="nombre_cientifico" style="ellipse;whiteSpace=wrap;html=1;" vertex="1" parent="1">
          <mxGeometry x="470" y="20" width="110" height="50" as="geometry" />
        </mxCell>
        <mxCell id="t743cUBlZp0HRSBSnR_Z-13" value="familia" style="ellipse;whiteSpace=wrap;html=1;" vertex="1" parent="1">
          <mxGeometry x="710" y="90" width="70" height="50" as="geometry" />
        </mxCell>
        <mxCell id="t743cUBlZp0HRSBSnR_Z-14" value="peligro" style="ellipse;whiteSpace=wrap;html=1;" vertex="1" parent="1">
          <mxGeometry x="705" y="160" width="80" height="50" as="geometry" />
        </mxCell>
        <mxCell id="t743cUBlZp0HRSBSnR_Z-15" value="&lt;u&gt;n_identificacion&lt;/u&gt;" style="ellipse;whiteSpace=wrap;html=1;" vertex="1" parent="1">
          <mxGeometry x="210" y="350" width="110" height="40" as="geometry" />
        </mxCell>
        <mxCell id="t743cUBlZp0HRSBSnR_Z-16" value="sexo" style="ellipse;whiteSpace=wrap;html=1;" vertex="1" parent="1">
          <mxGeometry x="350" y="360" width="80" height="50" as="geometry" />
        </mxCell>
        <mxCell id="t743cUBlZp0HRSBSnR_Z-17" value="año_nacimiento" style="ellipse;whiteSpace=wrap;html=1;" vertex="1" parent="1">
          <mxGeometry x="450" y="360" width="100" height="50" as="geometry" />
        </mxCell>
        <mxCell id="t743cUBlZp0HRSBSnR_Z-18" value="pais_origen" style="ellipse;whiteSpace=wrap;html=1;" vertex="1" parent="1">
          <mxGeometry x="530" y="300" width="80" height="50" as="geometry" />
        </mxCell>
        <mxCell id="t743cUBlZp0HRSBSnR_Z-19" value="continente" style="ellipse;whiteSpace=wrap;html=1;" vertex="1" parent="1">
          <mxGeometry x="190" y="290" width="100" height="50" as="geometry" />
        </mxCell>
        <mxCell id="t743cUBlZp0HRSBSnR_Z-20" value="tienen" style="rhombus;whiteSpace=wrap;html=1;fillColor=#dae8fc;strokeColor=#6c8ebf;" vertex="1" parent="1">
          <mxGeometry x="250" y="180" width="80" height="80" as="geometry" />
        </mxCell>
        <mxCell id="t743cUBlZp0HRSBSnR_Z-21" value="pertenecen" style="rhombus;whiteSpace=wrap;html=1;fillColor=#dae8fc;strokeColor=#6c8ebf;" vertex="1" parent="1">
          <mxGeometry x="485" y="195" width="80" height="80" as="geometry" />
        </mxCell>
        <mxCell id="t743cUBlZp0HRSBSnR_Z-22" value="N" style="text;html=1;strokeColor=none;fillColor=none;align=center;verticalAlign=middle;whiteSpace=wrap;rounded=0;" vertex="1" parent="1">
          <mxGeometry x="310" y="230" width="60" height="30" as="geometry" />
        </mxCell>
        <mxCell id="t743cUBlZp0HRSBSnR_Z-23" value="1" style="text;html=1;strokeColor=none;fillColor=none;align=center;verticalAlign=middle;whiteSpace=wrap;rounded=0;" vertex="1" parent="1">
          <mxGeometry x="230" y="165" width="60" height="30" as="geometry" />
        </mxCell>
        <mxCell id="t743cUBlZp0HRSBSnR_Z-24" value="1" style="text;html=1;strokeColor=none;fillColor=none;align=center;verticalAlign=middle;whiteSpace=wrap;rounded=0;" vertex="1" parent="1">
          <mxGeometry x="510" y="180" width="60" height="30" as="geometry" />
        </mxCell>
        <mxCell id="t743cUBlZp0HRSBSnR_Z-25" value="n" style="text;html=1;strokeColor=none;fillColor=none;align=center;verticalAlign=middle;whiteSpace=wrap;rounded=0;" vertex="1" parent="1">
          <mxGeometry x="470" y="275" width="60" height="30" as="geometry" />
        </mxCell>
        <mxCell id="t743cUBlZp0HRSBSnR_Z-26" value="" style="endArrow=none;html=1;rounded=0;entryX=0;entryY=0.5;entryDx=0;entryDy=0;exitX=0;exitY=0;exitDx=0;exitDy=0;" edge="1" parent="1" source="t743cUBlZp0HRSBSnR_Z-20" target="t743cUBlZp0HRSBSnR_Z-23">
          <mxGeometry width="50" height="50" relative="1" as="geometry">
            <mxPoint x="380" y="360" as="sourcePoint" />
            <mxPoint x="430" y="310" as="targetPoint" />
          </mxGeometry>
        </mxCell>
        <mxCell id="t743cUBlZp0HRSBSnR_Z-27" value="" style="endArrow=none;html=1;rounded=0;entryX=0;entryY=0.25;entryDx=0;entryDy=0;exitX=0;exitY=0;exitDx=0;exitDy=0;" edge="1" parent="1" source="t743cUBlZp0HRSBSnR_Z-3" target="t743cUBlZp0HRSBSnR_Z-22">
          <mxGeometry width="50" height="50" relative="1" as="geometry">
            <mxPoint x="380" y="360" as="sourcePoint" />
            <mxPoint x="430" y="310" as="targetPoint" />
          </mxGeometry>
        </mxCell>
        <mxCell id="t743cUBlZp0HRSBSnR_Z-28" value="" style="endArrow=none;html=1;rounded=0;entryX=0;entryY=1;entryDx=0;entryDy=0;exitX=1;exitY=0.25;exitDx=0;exitDy=0;" edge="1" parent="1" source="t743cUBlZp0HRSBSnR_Z-3" target="t743cUBlZp0HRSBSnR_Z-21">
          <mxGeometry width="50" height="50" relative="1" as="geometry">
            <mxPoint x="380" y="360" as="sourcePoint" />
            <mxPoint x="430" y="310" as="targetPoint" />
          </mxGeometry>
        </mxCell>
        <mxCell id="t743cUBlZp0HRSBSnR_Z-29" value="" style="endArrow=none;html=1;rounded=0;entryX=0.5;entryY=1;entryDx=0;entryDy=0;exitX=1;exitY=0;exitDx=0;exitDy=0;" edge="1" parent="1" source="t743cUBlZp0HRSBSnR_Z-21" target="t743cUBlZp0HRSBSnR_Z-2">
          <mxGeometry width="50" height="50" relative="1" as="geometry">
            <mxPoint x="380" y="360" as="sourcePoint" />
            <mxPoint x="430" y="310" as="targetPoint" />
          </mxGeometry>
        </mxCell>
        <mxCell id="t743cUBlZp0HRSBSnR_Z-30" value="" style="endArrow=none;html=1;rounded=0;exitX=1;exitY=0.5;exitDx=0;exitDy=0;entryX=0;entryY=0.5;entryDx=0;entryDy=0;" edge="1" parent="1" source="t743cUBlZp0HRSBSnR_Z-19" target="t743cUBlZp0HRSBSnR_Z-3">
          <mxGeometry width="50" height="50" relative="1" as="geometry">
            <mxPoint x="330" y="315" as="sourcePoint" />
            <mxPoint x="380" y="265" as="targetPoint" />
          </mxGeometry>
        </mxCell>
        <mxCell id="t743cUBlZp0HRSBSnR_Z-31" value="" style="endArrow=none;html=1;rounded=0;exitX=1;exitY=0;exitDx=0;exitDy=0;entryX=0;entryY=1;entryDx=0;entryDy=0;" edge="1" parent="1" source="t743cUBlZp0HRSBSnR_Z-15" target="t743cUBlZp0HRSBSnR_Z-3">
          <mxGeometry width="50" height="50" relative="1" as="geometry">
            <mxPoint x="380" y="260" as="sourcePoint" />
            <mxPoint x="430" y="210" as="targetPoint" />
          </mxGeometry>
        </mxCell>
        <mxCell id="t743cUBlZp0HRSBSnR_Z-32" value="" style="endArrow=none;html=1;rounded=0;exitX=0.5;exitY=0;exitDx=0;exitDy=0;entryX=0.5;entryY=1;entryDx=0;entryDy=0;" edge="1" parent="1" source="t743cUBlZp0HRSBSnR_Z-16" target="t743cUBlZp0HRSBSnR_Z-3">
          <mxGeometry width="50" height="50" relative="1" as="geometry">
            <mxPoint x="380" y="260" as="sourcePoint" />
            <mxPoint x="430" y="210" as="targetPoint" />
          </mxGeometry>
        </mxCell>
        <mxCell id="t743cUBlZp0HRSBSnR_Z-33" value="" style="endArrow=none;html=1;rounded=0;exitX=0.5;exitY=0;exitDx=0;exitDy=0;entryX=1;entryY=1;entryDx=0;entryDy=0;" edge="1" parent="1" source="t743cUBlZp0HRSBSnR_Z-17" target="t743cUBlZp0HRSBSnR_Z-3">
          <mxGeometry width="50" height="50" relative="1" as="geometry">
            <mxPoint x="380" y="260" as="sourcePoint" />
            <mxPoint x="430" y="210" as="targetPoint" />
          </mxGeometry>
        </mxCell>
        <mxCell id="t743cUBlZp0HRSBSnR_Z-34" value="" style="endArrow=none;html=1;rounded=0;exitX=0;exitY=0.5;exitDx=0;exitDy=0;entryX=0.989;entryY=0.644;entryDx=0;entryDy=0;entryPerimeter=0;" edge="1" parent="1" source="t743cUBlZp0HRSBSnR_Z-18" target="t743cUBlZp0HRSBSnR_Z-3">
          <mxGeometry width="50" height="50" relative="1" as="geometry">
            <mxPoint x="380" y="260" as="sourcePoint" />
            <mxPoint x="430" y="210" as="targetPoint" />
          </mxGeometry>
        </mxCell>
        <mxCell id="t743cUBlZp0HRSBSnR_Z-35" value="" style="endArrow=none;html=1;rounded=0;entryX=0.5;entryY=1;entryDx=0;entryDy=0;exitX=1.011;exitY=0.133;exitDx=0;exitDy=0;exitPerimeter=0;" edge="1" parent="1" source="t743cUBlZp0HRSBSnR_Z-1" target="t743cUBlZp0HRSBSnR_Z-4">
          <mxGeometry width="50" height="50" relative="1" as="geometry">
            <mxPoint x="380" y="260" as="sourcePoint" />
            <mxPoint x="430" y="210" as="targetPoint" />
          </mxGeometry>
        </mxCell>
        <mxCell id="t743cUBlZp0HRSBSnR_Z-36" value="" style="endArrow=none;html=1;rounded=0;entryX=0.4;entryY=0.987;entryDx=0;entryDy=0;entryPerimeter=0;exitX=0.5;exitY=0;exitDx=0;exitDy=0;" edge="1" parent="1" source="t743cUBlZp0HRSBSnR_Z-1" target="t743cUBlZp0HRSBSnR_Z-5">
          <mxGeometry width="50" height="50" relative="1" as="geometry">
            <mxPoint x="380" y="260" as="sourcePoint" />
            <mxPoint x="430" y="210" as="targetPoint" />
          </mxGeometry>
        </mxCell>
        <mxCell id="t743cUBlZp0HRSBSnR_Z-37" value="" style="endArrow=none;html=1;rounded=0;entryX=0.5;entryY=1;entryDx=0;entryDy=0;exitX=0.25;exitY=0;exitDx=0;exitDy=0;" edge="1" parent="1" source="t743cUBlZp0HRSBSnR_Z-1" target="t743cUBlZp0HRSBSnR_Z-6">
          <mxGeometry width="50" height="50" relative="1" as="geometry">
            <mxPoint x="380" y="260" as="sourcePoint" />
            <mxPoint x="430" y="210" as="targetPoint" />
          </mxGeometry>
        </mxCell>
        <mxCell id="t743cUBlZp0HRSBSnR_Z-38" value="" style="endArrow=none;html=1;rounded=0;exitX=1;exitY=1;exitDx=0;exitDy=0;entryX=0;entryY=0.25;entryDx=0;entryDy=0;" edge="1" parent="1" source="t743cUBlZp0HRSBSnR_Z-7" target="t743cUBlZp0HRSBSnR_Z-1">
          <mxGeometry width="50" height="50" relative="1" as="geometry">
            <mxPoint x="380" y="260" as="sourcePoint" />
            <mxPoint x="430" y="210" as="targetPoint" />
          </mxGeometry>
        </mxCell>
        <mxCell id="t743cUBlZp0HRSBSnR_Z-39" value="" style="endArrow=none;html=1;rounded=0;entryX=0;entryY=0.5;entryDx=0;entryDy=0;" edge="1" parent="1" source="t743cUBlZp0HRSBSnR_Z-8" target="t743cUBlZp0HRSBSnR_Z-1">
          <mxGeometry width="50" height="50" relative="1" as="geometry">
            <mxPoint x="380" y="260" as="sourcePoint" />
            <mxPoint x="430" y="210" as="targetPoint" />
          </mxGeometry>
        </mxCell>
        <mxCell id="t743cUBlZp0HRSBSnR_Z-40" value="" style="endArrow=none;html=1;rounded=0;exitX=1;exitY=0;exitDx=0;exitDy=0;entryX=0.25;entryY=1;entryDx=0;entryDy=0;" edge="1" parent="1" source="t743cUBlZp0HRSBSnR_Z-9" target="t743cUBlZp0HRSBSnR_Z-1">
          <mxGeometry width="50" height="50" relative="1" as="geometry">
            <mxPoint x="380" y="260" as="sourcePoint" />
            <mxPoint x="430" y="210" as="targetPoint" />
          </mxGeometry>
        </mxCell>
        <mxCell id="t743cUBlZp0HRSBSnR_Z-41" value="" style="endArrow=none;html=1;rounded=0;entryX=0.5;entryY=1;entryDx=0;entryDy=0;exitX=0.25;exitY=0;exitDx=0;exitDy=0;" edge="1" parent="1" source="t743cUBlZp0HRSBSnR_Z-2" target="t743cUBlZp0HRSBSnR_Z-12">
          <mxGeometry width="50" height="50" relative="1" as="geometry">
            <mxPoint x="380" y="260" as="sourcePoint" />
            <mxPoint x="430" y="210" as="targetPoint" />
          </mxGeometry>
        </mxCell>
        <mxCell id="t743cUBlZp0HRSBSnR_Z-42" value="" style="endArrow=none;html=1;rounded=0;entryX=0.5;entryY=1;entryDx=0;entryDy=0;exitX=0.5;exitY=0;exitDx=0;exitDy=0;" edge="1" parent="1" source="t743cUBlZp0HRSBSnR_Z-2" target="t743cUBlZp0HRSBSnR_Z-11">
          <mxGeometry width="50" height="50" relative="1" as="geometry">
            <mxPoint x="380" y="260" as="sourcePoint" />
            <mxPoint x="430" y="210" as="targetPoint" />
          </mxGeometry>
        </mxCell>
        <mxCell id="t743cUBlZp0HRSBSnR_Z-43" value="" style="endArrow=none;html=1;rounded=0;entryX=0.305;entryY=1.017;entryDx=0;entryDy=0;entryPerimeter=0;exitX=0.75;exitY=0;exitDx=0;exitDy=0;" edge="1" parent="1" source="t743cUBlZp0HRSBSnR_Z-2" target="t743cUBlZp0HRSBSnR_Z-10">
          <mxGeometry width="50" height="50" relative="1" as="geometry">
            <mxPoint x="380" y="260" as="sourcePoint" />
            <mxPoint x="430" y="210" as="targetPoint" />
          </mxGeometry>
        </mxCell>
        <mxCell id="t743cUBlZp0HRSBSnR_Z-44" value="" style="endArrow=none;html=1;rounded=0;entryX=0;entryY=0.693;entryDx=0;entryDy=0;entryPerimeter=0;exitX=1;exitY=0.5;exitDx=0;exitDy=0;" edge="1" parent="1" source="t743cUBlZp0HRSBSnR_Z-2" target="t743cUBlZp0HRSBSnR_Z-13">
          <mxGeometry width="50" height="50" relative="1" as="geometry">
            <mxPoint x="380" y="260" as="sourcePoint" />
            <mxPoint x="430" y="210" as="targetPoint" />
          </mxGeometry>
        </mxCell>
        <mxCell id="t743cUBlZp0HRSBSnR_Z-45" value="" style="endArrow=none;html=1;rounded=0;entryX=0;entryY=0.5;entryDx=0;entryDy=0;exitX=1;exitY=1;exitDx=0;exitDy=0;" edge="1" parent="1" source="t743cUBlZp0HRSBSnR_Z-2" target="t743cUBlZp0HRSBSnR_Z-14">
          <mxGeometry width="50" height="50" relative="1" as="geometry">
            <mxPoint x="380" y="260" as="sourcePoint" />
            <mxPoint x="430" y="210" as="targetPoint" />
          </mxGeometry>
        </mxCell>
        <mxCell id="t743cUBlZp0HRSBSnR_Z-46" value="&lt;u&gt;id_especie&lt;/u&gt;" style="ellipse;whiteSpace=wrap;html=1;fillColor=#fff2cc;strokeColor=#d6b656;" vertex="1" parent="1">
          <mxGeometry x="580" y="365" width="70" height="40" as="geometry" />
        </mxCell>
        <mxCell id="t743cUBlZp0HRSBSnR_Z-47" value="" style="endArrow=none;html=1;rounded=0;exitX=0;exitY=0.5;exitDx=0;exitDy=0;entryX=1;entryY=0.75;entryDx=0;entryDy=0;" edge="1" parent="1" source="t743cUBlZp0HRSBSnR_Z-46" target="t743cUBlZp0HRSBSnR_Z-3">
          <mxGeometry width="50" height="50" relative="1" as="geometry">
            <mxPoint x="410" y="230" as="sourcePoint" />
            <mxPoint x="460" y="180" as="targetPoint" />
          </mxGeometry>
        </mxCell>
      </root>
    </mxGraphModel>
  </diagram>
</mxfile>
